<svg xmlns="http://www.w3.org/2000/svg" viewBox="0 0 300.13 300.13"><defs><style>.cls-1{fill:#fff;}</style></defs><g id="Layer_2" data-name="Layer 2"><g id="Layer_1-2" data-name="Layer 1"><rect x="44" y="43.91" width="212.13" height="212.32" transform="translate(-62.16 150.07) rotate(-45)"/><path class="cls-1" d="M232.48,150.12a82.37,82.37,0,1,0-82.37,82.45,82.37,82.37,0,0,0,82.37-82.45Z"/><path d="M78.77,169.24a73.85,73.85,0,1,1,90.49,52.14l-.06,0a73.82,73.82,0,0,1-90.43-52.13Z"/><path class="cls-1" d="M159.51,129.28h0v39.6l10.45-.11V149.53c0-3.8-.1-6.59.39-8.23s.3-1.75,1.45-2.62a6.35,6.35,0,0,1,3.91-1.31,4.4,4.4,0,0,1,2.83.82,4.67,4.67,0,0,1,1.57,2.5,18.67,18.67,0,0,1,1,6.71v21.69H191v-19a31.6,31.6,0,0,1,.77-8.17c.51-1.74.7-2.41,1.86-3.3a5.94,5.94,0,0,1,3.7-1.35,4.33,4.33,0,0,1,4,2.24,12.85,12.85,0,0,1,1.61,7v22.63h10V143.78q0-5.67-1-8.2a10.44,10.44,0,0,0-4-5.19,14,14,0,0,0-7.25-1.79,11.37,11.37,0,0,0-5.77,1.57,17.09,17.09,0,0,0-5,4.73,11.45,11.45,0,0,0-4.1-4.73,12.86,12.86,0,0,0-6.45-1.57c-4.27,0-7.09,1.78-10.18,6v-5.4Z"/><path class="cls-1" d="M155.16,143.51h0c-.79-6.18-3-9.87-5.61-11.94s-6.87-3.29-11.19-3.29q-7.91,0-12.55,5.48A23,23,0,0,0,120.59,149c0,6.46,1.53,12.33,4.6,16s7.77,5.11,12.95,5.11a16.4,16.4,0,0,0,11.07-3.89c2.72-2.41,4.71-6.84,5.67-11.56H145c-.46,2.76-.84,3.69-2,4.83a6,6,0,0,1-4.37,1.68,6.76,6.76,0,0,1-5.71-2.91q-2.1-2.91-2.1-9.95c0-4.23.8-6.7,2.18-8.49a6.23,6.23,0,0,1,5.44-2.45c1.76,0,3.24.2,4.33,1.24A8.73,8.73,0,0,1,145,143.5Z"/><path class="cls-1" d="M118,167.13a5.76,5.76,0,0,1-1.67-3.61,48.62,48.62,0,0,1-.43-7.72l.1-12.23c0-4.55-.43-7.67-1.27-9.36a9.5,9.5,0,0,0-4.31-4.21c-2-1.12-7.2-1.68-11.38-1.68q-6.9,0-10.41,2.76c-2.33,1.84-4.14,7.2-4.45,11.13l9.52-.07c.58-1.84,1.07-3.33,2-4.06a5.7,5.7,0,0,1,3.75-1.33c2.47,0,3.07-.05,4,.82s1.34,2.28,1.34,4.29v1a46.41,46.41,0,0,1-9.11,2.58A28.56,28.56,0,0,0,88.17,148a9.76,9.76,0,0,0-4,4,12.17,12.17,0,0,0-1.44,6,11.73,11.73,0,0,0,3.14,8.39A11.08,11.08,0,0,0,94.3,170c2.07,0,3.8.15,5.62-.72a24.49,24.49,0,0,0,6.32-4.61c.07.2.18.61.34,1.23q.53,2.06.9,3.09c3.52-.05,9.93,0,10.67-.1C118.15,168.2,118.28,167.34,118,167.13Zm-12.28-9.67c-.36,1.37-2.39,2-3.52,2.93a7.65,7.65,0,0,1-4.84,1.87,4.84,4.84,0,0,1-3.74-1.61c-1-1.07-.61-2-.61-3.48a4.5,4.5,0,0,1,1.84-3.69,18.08,18.08,0,0,1,6.12-1.93A19.54,19.54,0,0,0,106.1,150v2.35A23,23,0,0,1,105.73,157.46Z"/></g></g></svg>