<svg id="Layer_1" data-name="Layer 1" xmlns="http://www.w3.org/2000/svg" xmlns:xlink="http://www.w3.org/1999/xlink" viewBox="0 0 176 176"><defs><style>.cls-1,.cls-2{fill:none;}.cls-2{clip-rule:evenodd;}.cls-3{clip-path:url(#clip-path);}.cls-4{clip-path:url(#clip-path-2);}.cls-5{isolation:isolate;}.cls-6{clip-path:url(#clip-path-3);}.cls-7{fill:#c5d6e2;}.cls-8{clip-path:url(#clip-path-5);}.cls-9{fill:#94b3c8;}</style><clipPath id="clip-path"><circle class="cls-1" cx="88.2" cy="88.2" r="87.5"/></clipPath><clipPath id="clip-path-2"><rect class="cls-1" x="-296" y="-448" width="768" height="1024"/></clipPath><clipPath id="clip-path-3"><rect class="cls-1" width="176" height="176"/></clipPath><clipPath id="clip-path-5"><path class="cls-2" d="M104.24,141.49l3.28.46v-9.6a3.4,3.4,0,0,1,.42-.37,5.23,5.23,0,0,1,.56-.4,3.66,3.66,0,0,1,.58-.31.83.83,0,0,1,.44-.1l2.26.32a.41.41,0,0,1,.2,0,5,5,0,0,1,.57.56,3.34,3.34,0,0,1,.49.71s0,0,0,.11v9.8l3.28.46v-9.86a4,4,0,0,0-.13-1,3.66,3.66,0,0,0-.46-1l-.28-.38c-.12-.17-.26-.33-.41-.51l-.46-.5a3.17,3.17,0,0,0-.42-.41,4.35,4.35,0,0,0-1.13-.68,4.46,4.46,0,0,0-1.23-.36l-2.37-.33a2,2,0,0,0-1,.1,7.07,7.07,0,0,0-.92.4v-6l-3.28-.46Zm-18.12-6.6a4,4,0,0,0,.13,1,3.21,3.21,0,0,0,.46,1c.07.1.16.24.29.4s.26.33.41.5.3.34.46.5a4.81,4.81,0,0,0,.42.4,4.07,4.07,0,0,0,1.13.67,4.92,4.92,0,0,0,1.26.34l3.15.44a3.65,3.65,0,0,0,1.23,0,3.85,3.85,0,0,0,1.13-.38,4.06,4.06,0,0,0,.5-.34c.2-.16.41-.34.62-.54a5.61,5.61,0,0,0,.58-.62,3.27,3.27,0,0,0,.4-.6l-3.05-1.33-.1.11-.23.2a2.75,2.75,0,0,1-.33.23,2.09,2.09,0,0,1-.36.19.48.48,0,0,1-.29,0l-3.22-.44-.13,0s0,0-.06-.05a6.37,6.37,0,0,1-.59-.49,2.55,2.55,0,0,1-.46-.59.33.33,0,0,1-.07-.14.06.06,0,0,1,0-.06v-5.76a.06.06,0,0,1,0-.06.19.19,0,0,1,.07-.12,1.55,1.55,0,0,1,.46-.46,6,6,0,0,1,.59-.34l.06,0a.3.3,0,0,1,.13,0l3.18.44a.78.78,0,0,1,.3.14,2.93,2.93,0,0,1,.36.28q.18.17.33.33l.24.29.08.11,3-.48a4.29,4.29,0,0,0-.38-.73c-.17-.26-.36-.51-.55-.76s-.4-.46-.61-.67-.39-.38-.56-.52a5.07,5.07,0,0,0-1.12-.69,4.54,4.54,0,0,0-1.24-.39l-3.11-.43a4.83,4.83,0,0,0-1.26,0,3,3,0,0,0-1.13.36,3,3,0,0,0-.42.28,5.32,5.32,0,0,0-.46.37c-.15.13-.28.26-.41.39a2.53,2.53,0,0,0-.29.32,2.31,2.31,0,0,0-.46.91,3.72,3.72,0,0,0-.13,1Zm-16.51-12.2.26,2.92V136.7l3.28.46v-9.67c.1-.11.22-.23.37-.37a3.81,3.81,0,0,1,.49-.39,2.55,2.55,0,0,1,.57-.29,1.12,1.12,0,0,1,.57-.06l1.77.24a1.2,1.2,0,0,1,.47.18,2.38,2.38,0,0,1,.43.34,4,4,0,0,1,.35.37l.23.29,3-.48a4.56,4.56,0,0,0-.36-.68,9,9,0,0,0-.53-.73c-.19-.24-.38-.46-.58-.67s-.37-.39-.53-.53a6.52,6.52,0,0,0-1.15-.76,4.37,4.37,0,0,0-1.27-.39l-2-.27a2.12,2.12,0,0,0-1.11.15,9.13,9.13,0,0,0-1,.5l-.16-.8Zm-15.3,3.53v-1.59a.27.27,0,0,1,0-.12,2.73,2.73,0,0,1,.28-.33,3.07,3.07,0,0,1,.35-.28,2,2,0,0,1,.35-.19.58.58,0,0,1,.3-.06l3,.42a.43.43,0,0,1,.2.06,4.91,4.91,0,0,1,.62.55,3.71,3.71,0,0,1,.46.6.21.21,0,0,1,0,.12V127ZM51,130a4,4,0,0,0,.15,1.07,3.63,3.63,0,0,0,.47,1c.07.1.17.22.3.38l.39.49c.16.17.31.34.47.5a4.81,4.81,0,0,0,.42.4,4.22,4.22,0,0,0,1.13.67,5.15,5.15,0,0,0,1.26.34l3.08.43a3.71,3.71,0,0,0,1.24,0,3.78,3.78,0,0,0,1.12-.38,3.42,3.42,0,0,0,.5-.34c.21-.16.41-.34.63-.54a5.67,5.67,0,0,0,.58-.62,3.75,3.75,0,0,0,.39-.6l-3-1.33,0,0a.15.15,0,0,1-.07.07l-.23.2a3,3,0,0,1-.32.24,3,3,0,0,1-.36.18.61.61,0,0,1-.3.06l-3.18-.45a.67.67,0,0,1-.3-.14,2.24,2.24,0,0,1-.35-.29,3.22,3.22,0,0,1-.35-.38,4.21,4.21,0,0,1-.28-.4.07.07,0,0,1,0-.05.29.29,0,0,1,0-.12V129.1l8.88,1.24v-4.47a4.55,4.55,0,0,0-.12-1,3.11,3.11,0,0,0-.47-1,3.83,3.83,0,0,0-.28-.4l-.41-.48-.46-.5q-.24-.24-.42-.39a4.55,4.55,0,0,0-1.13-.69,5.22,5.22,0,0,0-1.26-.36l-3-.42a4.44,4.44,0,0,0-1.26,0,3.49,3.49,0,0,0-1.13.37,4.34,4.34,0,0,0-.42.28l-.47.37L52,122a4.18,4.18,0,0,0-.3.3,2.62,2.62,0,0,0-.47.87,3.4,3.4,0,0,0-.15,1Zm-24.18.7,3.44.48V118l3.9,9,2.26.32,3.9-7.93v13.22l3.45.48V113.73l-3.91-.55-4.52,8.91-4.59-10.18-3.93-.55ZM156.11,72.47V257.11l-29.79,14.35V86.82Zm-135.23,0,101,14.35V271.46l-101-14.35Zm31.09.9L24.14,69.09,52,55.68Zm3.88-17.69,2.4.34,94.12,13.37L123.6,83.19,55.85,73.63Zm34.2,41.41a19.45,19.45,0,0,1-1.35,2.6c-3.51,5.63-9.46,8.58-18.86,7.48-8.5-1-14.34-4.71-18.1-10.32a25,25,0,0,1-3.09-6.44,3.41,3.41,0,0,0,.87-2.33,4.74,4.74,0,0,0-4-4.51,3.34,3.34,0,0,0-4,3.36,4.74,4.74,0,0,0,3.18,4.31,29.25,29.25,0,0,0,3.7,7.83c4.39,6.55,11.25,10.92,20.93,12.05,10.95,1.28,18.39-2.41,22.7-9.32a23.15,23.15,0,0,0,1.52-2.86,3.31,3.31,0,0,0,3.46-3.4,4.72,4.72,0,0,0-4-4.51,3.34,3.34,0,0,0-4,3.35A4.54,4.54,0,0,0,90.05,97.09Z"/></clipPath></defs><g class="cls-3"><g class="cls-4"><g class="cls-5"><g class="cls-6"><g class="cls-6"><rect class="cls-7" x="-4.3" y="-4.3" width="185.01" height="185.01"/></g><g class="cls-8"><g class="cls-6"><rect class="cls-9" x="15.88" y="50.68" width="145.23" height="225.77"/></g></g></g></g></g></g></svg>