<?xml version="1.0" encoding="utf-8"?>
<!-- Generator: Adobe Illustrator 25.4.1, SVG Export Plug-In . SVG Version: 6.00 Build 0)  -->
<svg version="1.1" id="Layer_1" xmlns="http://www.w3.org/2000/svg" xmlns:xlink="http://www.w3.org/1999/xlink" x="0px" y="0px"
	 viewBox="0 0 391.5 101.5" style="enable-background:new 0 0 391.5 101.5;" xml:space="preserve">
<style type="text/css">
	.st0{display:none;fill:#293742;}
</style>
<rect class="st0" width="391.5" height="101.5"/>
<g>
	<path d="M379.6,36c2.3-0.4,4.6-0.5,6.9-0.3c0.2,2,0,4,0.1,6c0,1,0,2,0,3c-2.2-0.5-4.5-0.6-6.8-0.3c-3.2,0.1-6.3,1.6-8.4,4.1
		c-2.1,2.8-2.6,6.3-2.7,9.7c0,9.1,0,18.2,0,27.3h-9.3c0-10.1,0-20.2,0-30.2c0-4.4,0.1-8.7-0.1-13.1c-0.1-2-0.3-4-0.4-6h9.4
		c0,3,0.1,6.1,0.2,9.2c0.5-1.7,1.3-3.2,2.4-4.5C373.1,38.1,376.2,36.5,379.6,36L379.6,36z"/>
	<path d="M280,35.5c4.4-0.8,8.9-0.4,13,1.3c3,1.2,5.6,3.4,7.2,6.2c1.1,1.9,1.7,4,2,6.2c0.2,1.9,0.2,3.8,0.1,5.6
		c0,10.2,0,20.4,0,30.6h-9.4c0-10.5,0-21.1,0-31.6c0.1-2.3-0.4-4.5-1.4-6.6c-1.3-2-3.2-3.4-5.4-4.2c-3.9-1.4-8.2-1-11.6,1.3
		c-2.9,2-4.8,5.1-5.4,8.5c-0.3,1.6-0.4,3.3-0.4,4.9v25.8c0,0.6,0,1.2,0,1.8c-3.1,0-6.2,0-9.3,0v-32c0-5.8,0-11.6-0.1-17.5
		c3.1,0,6.1,0,9.2,0c0.1,1.4-0.1,2.8,0.1,4.2c0.1,1.2,0,2.4,0.1,3.6c0.8-1.5,1.7-2.8,2.9-4C273.9,37.5,276.8,36.1,280,35.5z"/>
	<path d="M250.8,70.9c0.1-4.1,0.2-8.2,0.2-12.4c0.2-2.2,0.2-4.5,0.2-6.7c0-2.2,0.2-4.5-0.4-6.7c-0.4-1.9-1.3-3.6-2.6-5.1
		c-1.9-1.9-4.2-3.3-6.8-4c-3-1-6.1-1.4-9.2-1.3c-3.9-0.1-7.9,0.6-11.5,2.1h0c-2.2,0.9-4.1,2.5-5.5,4.4c-1.5,2.4-2.4,5.3-2.5,8.1h9.3
		c0-2.7,1.2-5.2,3.4-6.8c2-1.2,4.3-1.7,6.6-1.6c2.5,0,5,0.7,7.1,2.1c1.5,1.2,2.5,3,2.7,4.9c0.2,2.4,0.3,4.8,0.3,7.2
		c-1.6-0.2-3.1-0.2-4.7-0.3c-5.2-0.1-10.6,0.2-15.6,1.8c-3.7,1.1-7,3.4-9.2,6.6c-2,2.8-3,6.2-2.9,9.7c0,3.4,1.3,6.7,3.6,9.2
		c2.7,2.7,6.3,4.4,10.1,4.8c4,0.6,8.2,0.4,11.8-1.4c3.1-1.6,5.5-4.1,7.1-7.2c0,2.4,0.3,4.9,0.9,7.2c2.8,0,5.6,0,8.4,0
		C251,80.6,250.8,75.7,250.8,70.9z M241.5,69.7c-0.5,3.1-2.2,5.9-4.8,7.8c-2.7,1.8-6,2.5-9.3,2.1c-2.4-0.1-4.7-1.2-6.4-3
		c-2.6-3.1-2.6-7.7,0-10.8c1.7-1.7,3.8-3,6.2-3.5v0c2.5-0.7,5-1,7.5-1.1c2.4-0.1,4.9,0,7.3,0.2C242.1,64.2,241.9,67,241.5,69.7z"/>
	<path d="M186.1,79.2c-0.3-1.8,0-3.6-0.3-5.4c-0.1-1.2,0.2-2.4,0.1-3.5c0.1-3.3,0-6.6,0.2-9.9c0-3,0.1-6,0.1-9
		c0.1-1.1,0.1-2.3,0-3.4c0-3.3-1.4-6.4-3.7-8.6c-1.1-1-2.4-1.8-3.8-2.4c-6.9-2.7-14.6-2.9-21.7-0.6c-2.6,0.8-5,2.5-6.7,4.7
		c-1.7,2.5-2.6,5.4-2.6,8.5h9.2c0-2.2,0.9-4.4,2.4-6c2-1.9,4.9-2.4,7.6-2.4c2.3,0,4.7,0.6,6.7,1.7c1.6,1,2.8,2.7,3.1,4.6
		c0.4,2.6,0.5,5.2,0.3,7.8c-1.4-0.2-2.8-0.1-4.2-0.3c-3.8-0.1-7.5,0.1-11.3,0.6c-3.4,0.6-6.9,1.5-9.8,3.6c-6,4.1-8.6,11.7-6.2,18.5
		c1,2.7,2.8,5,5.2,6.6c3.4,2.1,7.3,3.1,11.3,3c2.7,0.1,5.4-0.5,7.9-1.6c3.1-1.6,5.7-4.1,7.3-7.2c0,2.4,0.3,4.9,0.9,7.2
		c2.8,0,5.6,0,8.4,0C186.4,83.4,186.1,81.3,186.1,79.2z M176.7,68.7c-0.3,2.9-1.5,5.6-3.6,7.6c-2.1,2-4.8,3.2-7.7,3.3
		c-0.8,0.1-1.6,0.1-2.4,0c-2.4-0.1-4.7-1-6.5-2.7c-1.7-1.8-2.6-4.2-2.4-6.6c0.2-2.4,1.4-4.6,3.4-6v0c3.1-2.2,7-2.8,10.7-3.1
		c2.9-0.2,5.9-0.1,8.8,0.2C177.1,63.9,177,66.3,176.7,68.7z"/>
	<path d="M314,25.6c3-1,6.1-2,9.1-2.9c0,4.5,0,9,0,13.4c3.7,0,7.3,0,11,0c0,2.3,0,4.5,0,6.8c-3.7,0-7.3,0-11,0v30.3
		c-0.1,1.5,0.4,3,1.4,4.1c1.2,1,2.6,1.5,4.1,1.5c1.8,0.1,3.6-0.1,5.4-0.4c0.1,1.5,0,3,0,4.5c0,0.9,0,1.8-0.1,2.7
		c-2.5,0.4-5.1,0.6-7.6,0.6c-2.3,0.1-4.5-0.2-6.7-0.8c-1.9-0.5-3.5-1.8-4.5-3.4c-0.9-1.9-1.4-4-1.3-6.1c0-11,0-21.9,0-32.9
		c-2.9,0-5.8,0-8.7,0c0-2.3,0-4.6,0-6.8c2.9,0,5.8,0,8.7,0C314,32.5,313.9,29,314,25.6z"/>
	<g>
		<path d="M341.6,36.1h9.3c0,9.8,0,19.6,0,29.4c0,6.7,0,13.3,0,20c-3.1,0-6.2,0-9.2,0C341.5,69,341.5,52.5,341.6,36.1L341.6,36.1z"
			/>
		<path d="M340.6,14.5c3.7,0,7.4,0,11.1,0c0,3.4,0.1,6.9,0,10.3c-3.7,0-7.4,0-11,0C340.5,21.4,340.6,17.9,340.6,14.5z"/>
	</g>
	<path d="M194.3,14.5h9.2c0,23.7,0,47.3,0,71h-9.2V14.5z"/>
	<path d="M143,22.4c-1.9-2.8-4.6-5-7.7-6.3c-2.9-1-5.9-1.5-8.9-1.6c-4.1-0.1-8.2-0.1-12.3-0.1H98v0c0,14.5,0,28.9,0,43.4
		c0,9.2-0.1,18.4,0,27.6h9.8c0-10.5,0-21,0-31.5c5.9-0.1,11.8,0.2,17.7-0.3c3.6-0.2,7-1,10.3-2.4c3.2-1.6,5.9-4.1,7.8-7.2
		c1.9-3.2,2.8-6.8,2.7-10.5C146.4,29.7,145.2,25.7,143,22.4z M133.7,41.2c-1.8,2.1-4.4,3.5-7.1,3.9c-2.2,0.4-4.5,0.6-6.8,0.5H108
		c0-7.7,0-15.4,0-23.1h-0.1c5.2,0,10.4,0,15.6,0c3.3,0.1,6.8,0.6,9.4,2.8c2.2,1.9,3,5,3.1,7.8C136.2,36,135.4,38.9,133.7,41.2z"/>
</g>
<g>
	<path d="M10.1,71.2c5.3,2.2,10.6,4.6,15.9,6.8c4.9,2.1,9.8,4.2,14.6,6.3c0.3,0.1,0.6,0.1,0.8,0L72,71.2c1.8,3.3,3.4,6.6,5.2,9.9
		c-12,5.2-24,10.3-36.1,15.4C29,91.4,17,86.2,5,81.1V81C6.8,77.8,8.4,74.5,10.1,71.2z"/>
	<path d="M56.5,8.6c-5.4-2.7-11.4-3.9-17.4-3.5C25,5.9,12.8,15.2,8.3,28.5C7,32.1,6.4,35.9,6.5,39.7C6.4,43.2,7,46.8,8.1,50.2
		c2.9,9,9.2,16.4,17.7,20.5c17.2,8.5,37.9,1.4,46.4-15.7S73.6,17.1,56.5,8.6z M44.4,63.2c-13,1.8-25.1-7.3-26.9-20.3
		c-1.8-13,7.3-25.1,20.3-26.9c4.3-0.6,8.8,0,12.8,1.8c7.6,3.3,12.9,10.3,14.1,18.5C66.5,49.3,57.4,61.4,44.4,63.2z"/>
</g>
</svg>
